<svg xmlns="http://www.w3.org/2000/svg" xmlns:xlink="http://www.w3.org/1999/xlink" width="500" zoomAndPan="magnify" viewBox="0 0 375 374.999991" height="500" preserveAspectRatio="xMidYMid meet" version="1.0"><defs><g/><clipPath id="552ae8dc4b"><path d="M 43 49.3125 L 331 49.3125 L 331 308.699219 L 43 308.699219 Z M 43 49.3125 " clip-rule="nonzero"/></clipPath><clipPath id="47d03d9fa2"><path d="M 273.085938 68.796875 L 325.363281 159.347656 C 332.324219 171.402344 332.324219 186.257812 325.363281 198.316406 L 273.085938 288.867188 C 266.125 300.921875 253.257812 308.351562 239.335938 308.351562 L 134.777344 308.351562 C 120.855469 308.351562 107.988281 300.921875 101.027344 288.867188 L 48.75 198.316406 C 41.789062 186.257812 41.789062 171.402344 48.75 159.347656 L 101.027344 68.796875 C 107.988281 56.738281 120.855469 49.3125 134.777344 49.3125 L 239.335938 49.3125 C 253.257812 49.3125 266.125 56.738281 273.085938 68.796875 Z M 273.085938 68.796875 " clip-rule="nonzero"/></clipPath><clipPath id="6831925970"><path d="M 0 0.3125 L 288 0.3125 L 288 259.398438 L 0 259.398438 Z M 0 0.3125 " clip-rule="nonzero"/></clipPath><clipPath id="548725a215"><path d="M 230.085938 19.796875 L 282.363281 110.347656 C 289.324219 122.402344 289.324219 137.257812 282.363281 149.316406 L 230.085938 239.867188 C 223.125 251.921875 210.257812 259.351562 196.335938 259.351562 L 91.777344 259.351562 C 77.855469 259.351562 64.988281 251.921875 58.027344 239.867188 L 5.75 149.316406 C -1.210938 137.257812 -1.210938 122.402344 5.75 110.347656 L 58.027344 19.796875 C 64.988281 7.738281 77.855469 0.3125 91.777344 0.3125 L 196.335938 0.3125 C 210.257812 0.3125 223.125 7.738281 230.085938 19.796875 Z M 230.085938 19.796875 " clip-rule="nonzero"/></clipPath><clipPath id="2fc738c08d"><rect x="0" width="288" y="0" height="260"/></clipPath><clipPath id="b28635b539"><path d="M 121.5625 97.535156 L 158.351562 97.535156 L 158.351562 195.550781 L 121.5625 195.550781 Z M 121.5625 97.535156 " clip-rule="nonzero"/></clipPath><clipPath id="537c60f2ed"><path d="M 132.8125 97.535156 L 147.101562 97.535156 C 153.316406 97.535156 158.351562 102.570312 158.351562 108.785156 L 158.351562 184.167969 C 158.351562 190.382812 153.316406 195.417969 147.101562 195.417969 L 132.8125 195.417969 C 126.597656 195.417969 121.5625 190.382812 121.5625 184.167969 L 121.5625 108.785156 C 121.5625 102.570312 126.597656 97.535156 132.8125 97.535156 Z M 132.8125 97.535156 " clip-rule="nonzero"/></clipPath><clipPath id="9f15d46bbb"><path d="M 0.5625 0.535156 L 37.351562 0.535156 L 37.351562 98.550781 L 0.5625 98.550781 Z M 0.5625 0.535156 " clip-rule="nonzero"/></clipPath><clipPath id="afe14c6f03"><path d="M 11.8125 0.535156 L 26.101562 0.535156 C 32.316406 0.535156 37.351562 5.570312 37.351562 11.785156 L 37.351562 87.167969 C 37.351562 93.382812 32.316406 98.417969 26.101562 98.417969 L 11.8125 98.417969 C 5.597656 98.417969 0.5625 93.382812 0.5625 87.167969 L 0.5625 11.785156 C 0.5625 5.570312 5.597656 0.535156 11.8125 0.535156 Z M 11.8125 0.535156 " clip-rule="nonzero"/></clipPath><clipPath id="1a26c53b68"><rect x="0" width="38" y="0" height="99"/></clipPath><clipPath id="81c8383860"><path d="M 169.105469 151.15625 L 205.894531 151.15625 L 205.894531 195.421875 L 169.105469 195.421875 Z M 169.105469 151.15625 " clip-rule="nonzero"/></clipPath><clipPath id="7905a1b881"><path d="M 180.355469 151.15625 L 194.644531 151.15625 C 200.859375 151.15625 205.894531 156.191406 205.894531 162.40625 L 205.894531 184.167969 C 205.894531 190.382812 200.859375 195.417969 194.644531 195.417969 L 180.355469 195.417969 C 174.140625 195.417969 169.105469 190.382812 169.105469 184.167969 L 169.105469 162.40625 C 169.105469 156.191406 174.140625 151.15625 180.355469 151.15625 Z M 180.355469 151.15625 " clip-rule="nonzero"/></clipPath><clipPath id="1414f33f08"><path d="M 0.105469 0.15625 L 36.894531 0.15625 L 36.894531 44.421875 L 0.105469 44.421875 Z M 0.105469 0.15625 " clip-rule="nonzero"/></clipPath><clipPath id="2bb0a5d19b"><path d="M 11.355469 0.15625 L 25.644531 0.15625 C 31.859375 0.15625 36.894531 5.191406 36.894531 11.40625 L 36.894531 33.167969 C 36.894531 39.382812 31.859375 44.417969 25.644531 44.417969 L 11.355469 44.417969 C 5.140625 44.417969 0.105469 39.382812 0.105469 33.167969 L 0.105469 11.40625 C 0.105469 5.191406 5.140625 0.15625 11.355469 0.15625 Z M 11.355469 0.15625 " clip-rule="nonzero"/></clipPath><clipPath id="1687204aa1"><rect x="0" width="37" y="0" height="45"/></clipPath><clipPath id="549a080d33"><path d="M 216.648438 97.535156 L 253.4375 97.535156 L 253.4375 195.550781 L 216.648438 195.550781 Z M 216.648438 97.535156 " clip-rule="nonzero"/></clipPath><clipPath id="68eef05c50"><path d="M 227.898438 97.535156 L 242.1875 97.535156 C 248.402344 97.535156 253.4375 102.570312 253.4375 108.785156 L 253.4375 184.167969 C 253.4375 190.382812 248.402344 195.417969 242.1875 195.417969 L 227.898438 195.417969 C 221.683594 195.417969 216.648438 190.382812 216.648438 184.167969 L 216.648438 108.785156 C 216.648438 102.570312 221.683594 97.535156 227.898438 97.535156 Z M 227.898438 97.535156 " clip-rule="nonzero"/></clipPath><clipPath id="34579a7c36"><path d="M 0.648438 0.535156 L 37.4375 0.535156 L 37.4375 98.550781 L 0.648438 98.550781 Z M 0.648438 0.535156 " clip-rule="nonzero"/></clipPath><clipPath id="db91b4b9f7"><path d="M 11.898438 0.535156 L 26.1875 0.535156 C 32.402344 0.535156 37.4375 5.570312 37.4375 11.785156 L 37.4375 87.167969 C 37.4375 93.382812 32.402344 98.417969 26.1875 98.417969 L 11.898438 98.417969 C 5.683594 98.417969 0.648438 93.382812 0.648438 87.167969 L 0.648438 11.785156 C 0.648438 5.570312 5.683594 0.535156 11.898438 0.535156 Z M 11.898438 0.535156 " clip-rule="nonzero"/></clipPath><clipPath id="9691fe2a77"><rect x="0" width="38" y="0" height="99"/></clipPath><clipPath id="de4e11a726"><path d="M 169.105469 97.535156 L 205.894531 97.535156 L 205.894531 141.226562 L 169.105469 141.226562 Z M 169.105469 97.535156 " clip-rule="nonzero"/></clipPath><clipPath id="f9c581d530"><path d="M 180.355469 97.535156 L 194.644531 97.535156 C 200.859375 97.535156 205.894531 102.570312 205.894531 108.785156 L 205.894531 129.960938 C 205.894531 136.175781 200.859375 141.210938 194.644531 141.210938 L 180.355469 141.210938 C 174.140625 141.210938 169.105469 136.175781 169.105469 129.960938 L 169.105469 108.785156 C 169.105469 102.570312 174.140625 97.535156 180.355469 97.535156 Z M 180.355469 97.535156 " clip-rule="nonzero"/></clipPath><clipPath id="c20612b75c"><path d="M 0.105469 0.535156 L 36.894531 0.535156 L 36.894531 44.226562 L 0.105469 44.226562 Z M 0.105469 0.535156 " clip-rule="nonzero"/></clipPath><clipPath id="48a1eb1086"><path d="M 11.355469 0.535156 L 25.644531 0.535156 C 31.859375 0.535156 36.894531 5.570312 36.894531 11.785156 L 36.894531 32.960938 C 36.894531 39.175781 31.859375 44.210938 25.644531 44.210938 L 11.355469 44.210938 C 5.140625 44.210938 0.105469 39.175781 0.105469 32.960938 L 0.105469 11.785156 C 0.105469 5.570312 5.140625 0.535156 11.355469 0.535156 Z M 11.355469 0.535156 " clip-rule="nonzero"/></clipPath><clipPath id="1a7b13d0de"><rect x="0" width="37" y="0" height="45"/></clipPath></defs><g clip-path="url(#552ae8dc4b)"><g clip-path="url(#47d03d9fa2)"><g transform="matrix(1, 0, 0, 1, 43, 49)"><g clip-path="url(#2fc738c08d)"><g clip-path="url(#6831925970)"><g clip-path="url(#548725a215)"><path fill="#fec629" d="M -5.5 0.3125 L 293.402344 0.3125 L 293.402344 259.699219 L -5.5 259.699219 Z M -5.5 0.3125 " fill-opacity="1" fill-rule="nonzero"/></g></g></g></g></g></g><g clip-path="url(#b28635b539)"><g clip-path="url(#537c60f2ed)"><g transform="matrix(1, 0, 0, 1, 121, 97)"><g clip-path="url(#1a26c53b68)"><g clip-path="url(#9f15d46bbb)"><g clip-path="url(#afe14c6f03)"><path fill="#1c252c" d="M 0.5625 0.535156 L 37.351562 0.535156 L 37.351562 98.40625 L 0.5625 98.40625 Z M 0.5625 0.535156 " fill-opacity="1" fill-rule="nonzero"/></g></g></g></g></g></g><g clip-path="url(#81c8383860)"><g clip-path="url(#7905a1b881)"><g transform="matrix(1, 0, 0, 1, 169, 151)"><g clip-path="url(#1687204aa1)"><g clip-path="url(#1414f33f08)"><g clip-path="url(#2bb0a5d19b)"><path fill="#1c252c" d="M 0.105469 0.15625 L 36.894531 0.15625 L 36.894531 44.421875 L 0.105469 44.421875 Z M 0.105469 0.15625 " fill-opacity="1" fill-rule="nonzero"/></g></g></g></g></g></g><g clip-path="url(#549a080d33)"><g clip-path="url(#68eef05c50)"><g transform="matrix(1, 0, 0, 1, 216, 97)"><g clip-path="url(#9691fe2a77)"><g clip-path="url(#34579a7c36)"><g clip-path="url(#db91b4b9f7)"><path fill="#1c252c" d="M 0.648438 0.535156 L 37.4375 0.535156 L 37.4375 98.40625 L 0.648438 98.40625 Z M 0.648438 0.535156 " fill-opacity="1" fill-rule="nonzero"/></g></g></g></g></g></g><g fill="#1c252c" fill-opacity="1"><g transform="translate(110.334614, 257.175218)"><g><path d="M 32 -45.828125 C 32.351562 -46.484375 32.941406 -46.941406 33.765625 -47.203125 C 34.585938 -47.460938 35.625 -47.59375 36.875 -47.59375 C 38.132812 -47.59375 39.128906 -47.484375 39.859375 -47.265625 C 40.597656 -47.046875 41.160156 -46.785156 41.546875 -46.484375 C 41.941406 -46.179688 42.242188 -45.75 42.453125 -45.1875 C 42.671875 -44.445312 42.78125 -43.320312 42.78125 -41.8125 L 42.78125 -5.78125 C 42.78125 -4.78125 42.75 -4.03125 42.6875 -3.53125 C 42.625 -3.039062 42.414062 -2.46875 42.0625 -1.8125 C 41.457031 -0.644531 39.769531 -0.0625 37 -0.0625 C 33.96875 -0.0625 32.195312 -0.863281 31.6875 -2.46875 C 31.425781 -3.207031 31.296875 -4.332031 31.296875 -5.84375 L 31.296875 -19.015625 L 14.09375 -19.015625 L 14.09375 -5.78125 C 14.09375 -4.78125 14.054688 -4.03125 13.984375 -3.53125 C 13.921875 -3.039062 13.71875 -2.46875 13.375 -1.8125 C 12.769531 -0.644531 11.082031 -0.0625 8.3125 -0.0625 C 5.28125 -0.0625 3.503906 -0.863281 2.984375 -2.46875 C 2.722656 -3.207031 2.59375 -4.332031 2.59375 -5.84375 L 2.59375 -41.875 C 2.59375 -42.875 2.625 -43.617188 2.6875 -44.109375 C 2.757812 -44.609375 2.96875 -45.179688 3.3125 -45.828125 C 3.914062 -47.003906 5.601562 -47.59375 8.375 -47.59375 C 11.40625 -47.59375 13.203125 -46.789062 13.765625 -45.1875 C 13.984375 -44.445312 14.09375 -43.320312 14.09375 -41.8125 L 14.09375 -28.5625 L 31.296875 -28.5625 L 31.296875 -41.875 C 31.296875 -42.875 31.328125 -43.617188 31.390625 -44.109375 C 31.453125 -44.609375 31.65625 -45.179688 32 -45.828125 Z M 32 -45.828125 "/></g></g></g><g fill="#1c252c" fill-opacity="1"><g transform="translate(155.714944, 257.175218)"><g><path d="M 2.59375 -41.875 C 2.59375 -42.875 2.625 -43.617188 2.6875 -44.109375 C 2.757812 -44.609375 2.96875 -45.179688 3.3125 -45.828125 C 3.914062 -47.003906 5.601562 -47.59375 8.375 -47.59375 C 11.40625 -47.59375 13.203125 -46.789062 13.765625 -45.1875 C 13.984375 -44.445312 14.09375 -43.320312 14.09375 -41.8125 L 14.09375 -5.71875 C 14.09375 -4.675781 14.054688 -3.914062 13.984375 -3.4375 C 13.921875 -2.96875 13.71875 -2.40625 13.375 -1.75 C 12.769531 -0.582031 11.082031 0 8.3125 0 C 5.28125 0 3.503906 -0.820312 2.984375 -2.46875 C 2.722656 -3.15625 2.59375 -4.257812 2.59375 -5.78125 Z M 2.59375 -41.875 "/></g></g></g><g fill="#1c252c" fill-opacity="1"><g transform="translate(172.399845, 257.175218)"><g><path d="M 46.03125 -46.875 C 48.582031 -45.613281 49.859375 -44.226562 49.859375 -42.71875 C 49.859375 -42.03125 49.535156 -40.992188 48.890625 -39.609375 L 30.96875 -3.25 C 30.488281 -2.289062 29.757812 -1.519531 28.78125 -0.9375 C 27.8125 -0.351562 26.8125 -0.0625 25.78125 -0.0625 L 25.125 -0.0625 C 24.039062 -0.0625 23.007812 -0.351562 22.03125 -0.9375 C 21.0625 -1.519531 20.335938 -2.289062 19.859375 -3.25 L 1.953125 -39.609375 C 1.296875 -40.992188 0.96875 -42.03125 0.96875 -42.71875 C 0.96875 -44.226562 2.242188 -45.613281 4.796875 -46.875 C 6.234375 -47.613281 7.328125 -47.984375 8.078125 -47.984375 C 8.835938 -47.984375 9.410156 -47.894531 9.796875 -47.71875 C 10.191406 -47.539062 10.5625 -47.238281 10.90625 -46.8125 C 11.289062 -46.289062 11.644531 -45.710938 11.96875 -45.078125 C 12.300781 -44.453125 13.132812 -42.65625 14.46875 -39.6875 C 15.8125 -36.726562 17.25 -33.582031 18.78125 -30.25 C 20.320312 -26.914062 21.773438 -23.765625 23.140625 -20.796875 C 24.503906 -17.835938 25.273438 -16.1875 25.453125 -15.84375 L 38.4375 -44.28125 C 38.78125 -45.101562 39.082031 -45.75 39.34375 -46.21875 C 40.125 -47.394531 41.078125 -47.984375 42.203125 -47.984375 C 43.328125 -47.984375 44.601562 -47.613281 46.03125 -46.875 Z M 46.03125 -46.875 "/></g></g></g><g fill="#1c252c" fill-opacity="1"><g transform="translate(223.233605, 257.175218)"><g><path d="M 14.09375 -11.484375 L 34.078125 -11.484375 C 35.078125 -11.484375 35.828125 -11.453125 36.328125 -11.390625 C 36.828125 -11.328125 37.398438 -11.125 38.046875 -10.78125 C 39.210938 -10.175781 39.796875 -8.488281 39.796875 -5.71875 C 39.796875 -2.6875 38.992188 -0.910156 37.390625 -0.390625 C 36.660156 -0.128906 35.535156 0 34.015625 0 L 8.3125 0 C 5.28125 0 3.503906 -0.820312 2.984375 -2.46875 C 2.722656 -3.15625 2.59375 -4.257812 2.59375 -5.78125 L 2.59375 -41.875 C 2.59375 -44.082031 3.003906 -45.585938 3.828125 -46.390625 C 4.648438 -47.191406 6.207031 -47.59375 8.5 -47.59375 L 34.078125 -47.59375 C 35.078125 -47.59375 35.828125 -47.554688 36.328125 -47.484375 C 36.828125 -47.421875 37.398438 -47.21875 38.046875 -46.875 C 39.210938 -46.269531 39.796875 -44.582031 39.796875 -41.8125 C 39.796875 -38.78125 38.992188 -37.003906 37.390625 -36.484375 C 36.660156 -36.222656 35.535156 -36.09375 34.015625 -36.09375 L 14.09375 -36.09375 L 14.09375 -29.546875 L 26.9375 -29.546875 C 27.9375 -29.546875 28.679688 -29.507812 29.171875 -29.4375 C 29.671875 -29.375 30.25 -29.171875 30.90625 -28.828125 C 32.070312 -28.222656 32.65625 -26.535156 32.65625 -23.765625 C 32.65625 -20.734375 31.832031 -18.957031 30.1875 -18.4375 C 29.445312 -18.175781 28.320312 -18.046875 26.8125 -18.046875 L 14.09375 -18.046875 Z M 14.09375 -11.484375 "/></g></g></g><g clip-path="url(#de4e11a726)"><g clip-path="url(#f9c581d530)"><g transform="matrix(1, 0, 0, 1, 169, 97)"><g clip-path="url(#1a7b13d0de)"><g clip-path="url(#c20612b75c)"><g clip-path="url(#48a1eb1086)"><path fill="#1c252c" d="M 0.105469 0.535156 L 36.894531 0.535156 L 36.894531 44.226562 L 0.105469 44.226562 Z M 0.105469 0.535156 " fill-opacity="1" fill-rule="nonzero"/></g></g></g></g></g></g></svg>